HIERARCHY
ROOT Hips
{
  OFFSET 5.80788e-005 67.184 3.4734
  CHANNELS 6 Xposition Yposition Zposition Zrotation Xrotation Yrotation
  JOINT Chest
  {
    OFFSET 0 8.7983 -4.7612
    CHANNELS 6 Xposition Yposition Zposition Zrotation Xrotation Yrotation
    JOINT Chest2
    {
      OFFSET 0 8.0291 0.4195
      CHANNELS 6 Xposition Yposition Zposition Zrotation Xrotation Yrotation
      JOINT Chest3
      {
        OFFSET 0 9.9351 -2.2114
        CHANNELS 6 Xposition Yposition Zposition Zrotation Xrotation Yrotation
        JOINT Neck
        {
          OFFSET 0 22.3885 -0.4656
          CHANNELS 6 Xposition Yposition Zposition Zrotation Xrotation Yrotation
          JOINT Head
          {
            OFFSET -0.0001 12.643 3.4389
            CHANNELS 6 Xposition Yposition Zposition Zrotation Xrotation Yrotation
            End Site
            {
              OFFSET 0.0001 17.6655 0.5274
            }
          }
        }
        JOINT LeftCollar
        {
          OFFSET 2.2603 21.606 7.4023
          CHANNELS 6 Xposition Yposition Zposition Zrotation Xrotation Yrotation
          JOINT LeftShoulder
          {
            OFFSET 13.5163 -1.1332 -5.0146
            CHANNELS 6 Xposition Yposition Zposition Zrotation Xrotation Yrotation
            JOINT LeftElbow
            {
              OFFSET -0.0995 -28.05 -0.2431
              CHANNELS 6 Xposition Yposition Zposition Zrotation Xrotation Yrotation
              JOINT LeftWrist
              {
                OFFSET 0.0679 -23.3996 -0.1402
                CHANNELS 6 Xposition Yposition Zposition Zrotation Xrotation Yrotation
                JOINT LeftFinger1
                {
                  OFFSET 0.7932 -9.069 2.5189
                  CHANNELS 6 Xposition Yposition Zposition Zrotation Xrotation Yrotation
                  JOINT LeftFinger11
                  {
                    OFFSET -0.8272 -3.3923 0.5977
                    CHANNELS 6 Xposition Yposition Zposition Zrotation Xrotation Yrotation
                    JOINT LeftFinger12
                    {
                      OFFSET -0.5649 -2.3158 0.4082
                      CHANNELS 6 Xposition Yposition Zposition Zrotation Xrotation Yrotation
                      End Site
                      {
                        OFFSET -0.4919 -1.6479 0.2673
                      }
                    }
                  }
                }
                JOINT LeftFinger2
                {
                  OFFSET 0.9159 -9.2044 0.2193
                  CHANNELS 6 Xposition Yposition Zposition Zrotation Xrotation Yrotation
                  JOINT LeftFinger21
                  {
                    OFFSET 0.0117 -4.1944 -0.0248
                    CHANNELS 6 Xposition Yposition Zposition Zrotation Xrotation Yrotation
                    JOINT LeftFinger22
                    {
                      OFFSET 0.0071 -2.3249 -0.0142
                      CHANNELS 6 Xposition Yposition Zposition Zrotation Xrotation Yrotation
                      End Site
                      {
                        OFFSET -0.1475 -2.0882 0.0028
                      }
                    }
                  }
                }
                JOINT LeftFinger3
                {
                  OFFSET 0.6113 -8.7231 -2.0637
                  CHANNELS 6 Xposition Yposition Zposition Zrotation Xrotation Yrotation
                  JOINT LeftFinger31
                  {
                    OFFSET -0.1927 -3.8059 -0.2383
                    CHANNELS 6 Xposition Yposition Zposition Zrotation Xrotation Yrotation
                    JOINT LeftFinger32
                    {
                      OFFSET -0.1091 -2.1688 -0.1362
                      CHANNELS 6 Xposition Yposition Zposition Zrotation Xrotation Yrotation
                      End Site
                      {
                        OFFSET -0.2358 -1.9176 -0.0906
                      }
                    }
                  }
                }
                JOINT LeftFinger4
                {
                  OFFSET -0.6151 -8.0947 -3.5641
                  CHANNELS 6 Xposition Yposition Zposition Zrotation Xrotation Yrotation
                  JOINT LeftFinger41
                  {
                    OFFSET -0.4882 -2.341 -0.6462
                    CHANNELS 6 Xposition Yposition Zposition Zrotation Xrotation Yrotation
                    JOINT LeftFinger42
                    {
                      OFFSET -0.3575 -1.7167 -0.4742
                      CHANNELS 6 Xposition Yposition Zposition Zrotation Xrotation Yrotation
                      End Site
                      {
                        OFFSET -0.4187 -1.5237 -0.3496
                      }
                    }
                  }
                }
                JOINT LeftFinger0
                {
                  OFFSET -1.42 -1.8761 1.4223
                  CHANNELS 6 Xposition Yposition Zposition Zrotation Xrotation Yrotation
                  JOINT LeftFinger01
                  {
                    OFFSET -1.1471 -3.4929 2.6334
                    CHANNELS 6 Xposition Yposition Zposition Zrotation Xrotation Yrotation
                    JOINT LeftFinger02
                    {
                      OFFSET -0.823 -2.3 1.6571
                      CHANNELS 6 Xposition Yposition Zposition Zrotation Xrotation Yrotation
                      End Site
                      {
                        OFFSET -0.5822 -1.6914 1.1582
                      }
                    }
                  }
                }
              }
            }
          }
        }
        JOINT RightCollar
        {
          OFFSET -2.2603 21.606 7.4023
          CHANNELS 6 Xposition Yposition Zposition Zrotation Xrotation Yrotation
          JOINT RightShoulder
          {
            OFFSET -13.5187 -1.1334 -5.0155
            CHANNELS 6 Xposition Yposition Zposition Zrotation Xrotation Yrotation
            JOINT RightElbow
            {
              OFFSET 0.0994 -28.0499 -0.2431
              CHANNELS 6 Xposition Yposition Zposition Zrotation Xrotation Yrotation
              JOINT RightWrist
              {
                OFFSET -0.0679 -23.3996 -0.1402
                CHANNELS 6 Xposition Yposition Zposition Zrotation Xrotation Yrotation
                JOINT RightFinger1
                {
                  OFFSET -0.7932 -9.0691 2.5189
                  CHANNELS 6 Xposition Yposition Zposition Zrotation Xrotation Yrotation
                  JOINT RightFinger11
                  {
                    OFFSET 0.8272 -3.3923 0.5977
                    CHANNELS 6 Xposition Yposition Zposition Zrotation Xrotation Yrotation
                    JOINT RightFinger12
                    {
                      OFFSET 0.565 -2.3158 0.4082
                      CHANNELS 6 Xposition Yposition Zposition Zrotation Xrotation Yrotation
                      End Site
                      {
                        OFFSET 0.4919 -1.6479 0.2673
                      }
                    }
                  }
                }
                JOINT RightFinger2
                {
                  OFFSET -0.916 -9.2044 0.2193
                  CHANNELS 6 Xposition Yposition Zposition Zrotation Xrotation Yrotation
                  JOINT RightFinger21
                  {
                    OFFSET -0.0117 -4.1944 -0.0248
                    CHANNELS 6 Xposition Yposition Zposition Zrotation Xrotation Yrotation
                    JOINT RightFinger22
                    {
                      OFFSET -0.0071 -2.3249 -0.0142
                      CHANNELS 6 Xposition Yposition Zposition Zrotation Xrotation Yrotation
                      End Site
                      {
                        OFFSET 0.1475 -2.0882 0.0028
                      }
                    }
                  }
                }
                JOINT RightFinger3
                {
                  OFFSET -0.6113 -8.7231 -2.0637
                  CHANNELS 6 Xposition Yposition Zposition Zrotation Xrotation Yrotation
                  JOINT RightFinger31
                  {
                    OFFSET 0.1927 -3.8059 -0.2383
                    CHANNELS 6 Xposition Yposition Zposition Zrotation Xrotation Yrotation
                    JOINT RightFinger32
                    {
                      OFFSET 0.1091 -2.1688 -0.1362
                      CHANNELS 6 Xposition Yposition Zposition Zrotation Xrotation Yrotation
                      End Site
                      {
                        OFFSET 0.2358 -1.9176 -0.0906
                      }
                    }
                  }
                }
                JOINT RightFinger4
                {
                  OFFSET 0.6151 -8.0947 -3.564
                  CHANNELS 6 Xposition Yposition Zposition Zrotation Xrotation Yrotation
                  JOINT RightFinger41
                  {
                    OFFSET 0.4882 -2.341 -0.6462
                    CHANNELS 6 Xposition Yposition Zposition Zrotation Xrotation Yrotation
                    JOINT RightFinger42
                    {
                      OFFSET 0.3574 -1.7166 -0.4742
                      CHANNELS 6 Xposition Yposition Zposition Zrotation Xrotation Yrotation
                      End Site
                      {
                        OFFSET 0.4187 -1.5237 -0.3496
                      }
                    }
                  }
                }
                JOINT RightFinger0
                {
                  OFFSET 1.4199 -1.8761 1.4221
                  CHANNELS 6 Xposition Yposition Zposition Zrotation Xrotation Yrotation
                  JOINT RightFinger01
                  {
                    OFFSET 1.1472 -3.4929 2.6336
                    CHANNELS 6 Xposition Yposition Zposition Zrotation Xrotation Yrotation
                    JOINT RightFinger02
                    {
                      OFFSET 0.8229 -2.3 1.6571
                      CHANNELS 6 Xposition Yposition Zposition Zrotation Xrotation Yrotation
                      End Site
                      {
                        OFFSET 0.5822 -1.6914 1.1582
                      }
                    }
                  }
                }
              }
            }
          }
        }
      }
    }
  }
  JOINT RightHip
  {
    OFFSET -9.412 3.9771 -0.7758
    CHANNELS 6 Xposition Yposition Zposition Zrotation Xrotation Yrotation
    JOINT RightKnee
    {
      OFFSET -0.7531 -40.938 0
      CHANNELS 6 Xposition Yposition Zposition Zrotation Xrotation Yrotation
      JOINT RightAnkle
      {
        OFFSET 0 -40.1986 0
        CHANNELS 6 Xposition Yposition Zposition Zrotation Xrotation Yrotation
        JOINT RightToe
        {
          OFFSET 0 -4.4182 9.239
          CHANNELS 6 Xposition Yposition Zposition Zrotation Xrotation Yrotation
          End Site
          {
            OFFSET 0 0 6.1981
          }
        }
      }
    }
  }
  JOINT LeftHip
  {
    OFFSET 9.4119 3.9773 -0.7758
    CHANNELS 6 Xposition Yposition Zposition Zrotation Xrotation Yrotation
    JOINT LeftKnee
    {
      OFFSET 0.7532 -40.9383 0
      CHANNELS 6 Xposition Yposition Zposition Zrotation Xrotation Yrotation
      JOINT LeftAnkle
      {
        OFFSET 0 -40.1986 0
        CHANNELS 6 Xposition Yposition Zposition Zrotation Xrotation Yrotation
        JOINT LeftToe
        {
          OFFSET 0 -4.4182 9.239
          CHANNELS 6 Xposition Yposition Zposition Zrotation Xrotation Yrotation
          End Site
          {
            OFFSET 0 0 6.1981
          }
        }
      }
    }
  }
}
MOTION
Frames:	4
Frame Time:	0.0333333
5.80788e-005 67.184 3.4734 0 0 -0 0 8.7983 -4.7612 0 0 -0 0 8.0291 0.4195 0 0 -0 0 9.9351 -2.2114 0 0 -0 0 22.3885 -0.4656 0 0 -0 -0.0001 12.643 3.4389 -0 0 0.00140347 2.2603 21.606 7.4023 0 0 -12.5014 13.5163 -1.1332 -5.0146 88.1196 14.2451 10.6914 -0.0995 -28.05 -0.2431 -0.00160068 -0.00239207 0.000740045 0.0679 -23.3996 -0.1402 -8.4365e-005 7.00714e-005 -9.52055e-007 0.7932 -9.069 2.5189 9.93923e-017 -1.98785e-016 -1.59028e-015 -0.8272 -3.3923 0.5977 9.93923e-017 -5.96354e-016 -1.59028e-015 -0.5649 -2.3158 0.4082 -9.93923e-017 -5.96354e-016 -1.59028e-015 0.9159 -9.2044 0.2193 9.93923e-017 -1.98785e-016 -1.59028e-015 0.0117 -4.1944 -0.0248 -0.0128176 0.00232552 8.52707e-005 0.0071 -2.3249 -0.0142 9.93923e-017 5.96354e-016 -0 0.6113 -8.7231 -2.0637 9.93923e-017 -1.98785e-016 -1.59028e-015 -0.1927 -3.8059 -0.2383 -0.0160551 0.00299681 0.000857156 -0.1091 -2.1688 -0.1362 -2.48481e-016 0 3.18055e-015 -0.6151 -8.0947 -3.5641 9.93923e-017 -1.98785e-016 -1.59028e-015 -0.4882 -2.341 -0.6462 -0.0125865 0.0031206 0.00282719 -0.3575 -1.7167 -0.4742 0 1.98785e-016 -0 -1.42 -1.8761 1.4223 9.93923e-017 -1.98785e-016 -1.59028e-015 -1.1471 -3.4929 2.6334 9.93923e-017 -5.96354e-016 -1.59028e-015 -0.823 -2.3 1.6571 -9.93923e-017 -5.96354e-016 -1.59028e-015 -2.2603 21.606 7.4023 -0.865644 0.16582 7.03859 -13.5187 -1.1334 -5.0155 -88.0329 10.2057 -10.5567 0.0994 -28.0499 -0.2431 0.0015593 -0.00248883 -0.000788628 -0.0679 -23.3996 -0.1402 7.87605e-005 4.10553e-005 1.24965e-005 -0.7932 -9.0691 2.5189 -3.97569e-016 -7.95139e-016 3.18055e-015 0.8272 -3.3923 0.5977 -1.98785e-016 -3.97569e-016 3.18055e-015 0.565 -2.3158 0.4082 -1.98785e-016 0 3.18055e-015 -0.916 -9.2044 0.2193 -3.97569e-016 -7.95139e-016 3.18055e-015 -0.0117 -4.1944 -0.0248 0.0129473 0.00231697 -8.70038e-005 -0.0071 -2.3249 -0.0142 9.93923e-017 -7.95139e-016 1.59028e-015 -0.6113 -8.7231 -2.0637 -3.97569e-016 -7.95139e-016 3.18055e-015 0.1927 -3.8059 -0.2383 0.0163314 0.00303369 -0.000872333 0.1091 -2.1688 -0.1362 3.97569e-016 7.95139e-016 -3.18055e-015 0.6151 -8.0947 -3.564 -3.97569e-016 -7.95139e-016 3.18055e-015 0.4882 -2.341 -0.6462 0.0145763 0.00367772 -0.00326275 0.3574 -1.7166 -0.4742 9.93923e-017 -3.97569e-016 -0 1.4199 -1.8761 1.4221 -3.97569e-016 -7.95139e-016 3.18055e-015 1.1472 -3.4929 2.6336 -1.98785e-016 -3.97569e-016 3.18055e-015 0.8229 -2.3 1.6571 -1.98785e-016 0 3.18055e-015 -9.412 3.9771 -0.7758 3.42485 1.36937 -0.0640303 -0.7531 -40.938 0 0.000136572 0.69354 0.00145564 1.77636e-015 -40.1986 -1.11022e-016 -3.42573 -2.06297 -0.0607933 8.88178e-016 -4.4182 9.239 -3.19502e-024 0 -1.48106e-024 9.4119 3.9773 -0.7758 -3.42498 1.36123 0.0639712 0.7532 -40.9383 2.22045e-016 -6.769e-005 0.712612 -0.0012277 8.88179e-016 -40.1986 0 3.42582 -2.07388 0.0612819 -8.88178e-016 -4.4182 9.239 2.55305e-023 0 -2.31416e-026 
1.73593 40.0637 -3.26983 0 43.1471 -0 0 8.7983 -4.7612 -1.34274 -1.05479 -1.89782 2.77556e-017 8.0291 0.4195 -2.72034 -2.06421 -3.82077 8.88179e-016 9.9351 -2.2114 -2.72035 -2.06422 -3.82078 -1.77636e-015 22.3885 -0.4656 -3.85349e-005 -0.0750177 -5.45837e-005 -0.0001 12.643 3.4389 -0.187403 0.44596 0.00140332 2.2603 21.606 7.4023 -10.4008 -7.8608 -55.287 13.5163 -1.1332 -5.0146 35.8456 37.5336 29.2003 -0.0995 -28.05 -0.2431 -64.0506 -51.2477 -39.0562 0.0679 -23.3996 -0.1402 43.3534 -20.3507 35.0095 0.7932 -9.069 2.5189 -2.38542e-015 6.36111e-015 -7.95139e-016 -0.8272 -3.3923 0.5977 -1.84653e-006 -4.19644e-006 -3.04653e-006 -0.5649 -2.3158 0.4082 2.20695e-031 -3.18055e-015 3.97569e-015 0.9159 -9.2044 0.2193 -2.38542e-015 6.36111e-015 -7.95139e-016 0.0117 -4.1944 -0.0248 -0.0127923 0.00233394 7.64751e-005 0.0071 -2.3249 -0.0142 1.59028e-015 -6.36111e-015 -2.38542e-015 0.6113 -8.7231 -2.0637 -2.38542e-015 6.36111e-015 -7.95139e-016 -0.1927 -3.8059 -0.2383 -0.0160198 0.00299052 0.000847459 -0.1091 -2.1688 -0.1362 -7.71971e-006 5.82392e-007 1.44824e-006 -0.6151 -8.0947 -3.5641 -2.38542e-015 6.36111e-015 -7.95139e-016 -0.4882 -2.341 -0.6462 -0.0125929 0.00312109 0.00281612 -0.3575 -1.7167 -0.4742 -2.75856e-006 -2.07872e-006 -5.72516e-007 -1.42 -1.8761 1.4223 -2.38542e-015 6.36111e-015 -7.95139e-016 -1.1471 -3.4929 2.6334 -1.84653e-006 -4.19644e-006 -3.04653e-006 -0.823 -2.3 1.6571 2.20695e-031 -3.18055e-015 3.97569e-015 -2.2603 21.606 7.4023 49.8005 -4.28579 -7.86785 -13.5187 -1.1334 -5.0155 -48.3419 28.086 -20.9158 0.0994 -28.0499 -0.2431 41.7425 -2.33295 16.7833 -0.0679 -23.3996 -0.1402 17.9461 -33.2816 -39.7909 -0.7932 -9.0691 2.5189 -3.22767e-031 -1.16289e-014 -1.59028e-015 0.8272 -3.3923 0.5977 -1.58625e-031 -1.14301e-014 -7.95139e-016 0.565 -2.3158 0.4082 -7.95139e-016 -8.34896e-015 -0 -0.916 -9.20439 0.2193 -3.22767e-031 -1.16289e-014 -1.59028e-015 -0.0117 -4.1944 -0.0248 0.0129676 0.00231653 -9.80263e-005 -0.0071 -2.3249 -0.0142 -3.10353e-031 7.45443e-015 2.38542e-015 -0.6113 -8.72309 -2.0637 -3.22767e-031 -1.16289e-014 -1.59028e-015 0.1927 -3.8059 -0.2383 0.0163313 0.00302372 -0.000871533 0.1091 -2.1688 -0.1362 1.58983e-006 6.74216e-006 6.20768e-007 0.6151 -8.0947 -3.564 -3.22767e-031 -1.16289e-014 -1.59028e-015 0.4882 -2.341 -0.6462 0.0145654 0.00366898 -0.0032627 0.3574 -1.7166 -0.4742 7.95139e-016 5.96354e-015 2.38542e-015 1.4199 -1.8761 1.4221 -3.22767e-031 -1.16289e-014 -1.59028e-015 1.1472 -3.4929 2.6336 -1.58625e-031 -1.14301e-014 -7.95139e-016 0.8229 -2.3 1.6571 -7.95139e-016 -8.34896e-015 -0 -9.412 3.9771 -0.7758 -65.3242 -30.3672 -25.7306 -0.7531 -40.938 0 -176.696 76.6232 174.637 -7.10543e-015 -40.1986 0 61.2908 34.4529 -62.5151 1.77636e-015 -4.4182 9.239 2.5299e-005 -1.86264e-006 -5.95048e-006 9.4119 3.9773 -0.7758 65.285 -30.3905 25.652 0.7532 -40.9383 0 176.964 76.6336 -174.9 7.10543e-015 -40.1986 0 -61.3743 34.4059 62.5499 -1.77636e-015 -4.4182 9.239 2.39488e-006 1.19457e-006 5.7721e-006 
1.6341 41.3754 -2.03014 0 39.1127 -0 0 8.7983 -4.7612 -1.28183 -0.880866 -1.76656 2.22045e-016 8.0291 0.4195 -2.59066 -1.72156 -3.553 0 9.9351 -2.2114 -2.59066 -1.72157 -3.55299 1.77636e-015 22.3885 -0.4656 2.99265e-005 0.00117604 3.82388e-005 -0.0001 12.643 3.4389 -0.175493 0.534688 0.00140302 2.2603 21.606 7.4023 -9.8113 -7.02909 -52.6483 13.5163 -1.1332 -5.0146 39.1673 36.3616 28.0664 -0.0995 -28.05 -0.2431 -58.3859 -47.5191 -35.1875 0.0679 -23.3996 -0.1402 40.2561 -19.6582 33.104 0.7932 -9.069 2.5189 -2.64834e-031 1.27222e-014 1.19271e-015 -0.8272 -3.3923 0.5977 1.19271e-015 1.27222e-014 -7.95139e-016 -0.5649 -2.3158 0.4082 1.19271e-015 3.18055e-015 -3.97569e-016 0.9159 -9.2044 0.2193 -2.64834e-031 1.27222e-014 1.19271e-015 0.0117 -4.1944 -0.0248 -0.0127869 0.00230813 7.9344e-005 0.0071 -2.3249 -0.0142 -7.95139e-016 -9.54166e-015 2.78299e-015 0.6113 -8.7231 -2.0637 -2.64834e-031 1.27222e-014 1.19271e-015 -0.1927 -3.8059 -0.2383 -0.0160545 0.00298729 0.000858255 -0.1091 -2.1688 -0.1362 0 0 -7.95139e-016 -0.6151 -8.0947 -3.5641 -2.64834e-031 1.27222e-014 1.19271e-015 -0.4882 -2.341 -0.6462 -0.0125892 0.00311919 0.00282359 -0.3575 -1.7167 -0.4742 -1.19271e-015 -3.18055e-015 2.78299e-015 -1.42 -1.8761 1.4223 -2.64834e-031 1.27222e-014 1.19271e-015 -1.1471 -3.4929 2.6334 1.19271e-015 1.27222e-014 -7.95139e-016 -0.823 -2.3 1.6571 1.19271e-015 3.18055e-015 -3.97569e-016 -2.2603 21.606 7.4023 47.1249 -4.09351 -6.6137 -13.5187 -1.1334 -5.0155 -50.8322 26.4334 -20.1796 0.0994 -28.0499 -0.2431 39.2978 -2.16185 15.9511 -0.0679 -23.3996 -0.1402 17.9809 -29.899 -38.4026 -0.7932 -9.0691 2.5189 -0 -4.78326e-015 -0 0.8272 -3.3923 0.5977 -0 -4.75841e-015 -0 0.565 -2.3158 0.4082 -7.95139e-016 -1.55301e-015 1.98785e-016 -0.916 -9.2044 0.2193 -0 -4.78326e-015 -0 -0.0117 -4.1944 -0.0248 0.0129807 0.00231241 -7.59892e-005 -0.0071 -2.3249 -0.0142 1.81039e-032 -2.60905e-015 3.97569e-016 -0.6113 -8.7231 -2.0637 -0 -4.78326e-015 -0 0.1927 -3.8059 -0.2383 0.0163145 0.00303606 -0.000869691 0.1091 -2.1688 -0.1362 -1.3621e-032 3.926e-015 1.98785e-016 0.6151 -8.0947 -3.564 -0 -4.78326e-015 -0 0.4882 -2.341 -0.6462 0.0145617 0.00366583 -0.00324954 0.3574 -1.7166 -0.4742 1.19271e-015 -1.0548e-014 5.96354e-016 1.4199 -1.8761 1.4221 -0 -4.78326e-015 -0 1.1472 -3.4929 2.6336 -0 -4.75841e-015 -0 0.8229 -2.3 1.6571 -7.95139e-016 -1.55301e-015 1.98785e-016 -9.412 3.9771 -0.7758 -60.2431 -26.483 -22.9301 -0.7531 -40.938 0 -174.881 83.1409 173.24 0 -40.1986 -3.55271e-015 53.8071 35.0898 -57.1059 3.55271e-015 -4.4182 9.239 -2.4436e-006 -3.88161e-006 -1.0928e-005 9.4119 3.9773 -0.7758 60.2444 -26.5184 22.86 0.7532 -40.9383 1.77636e-015 175.367 83.1515 -173.717 -7.10543e-015 -40.1986 0 -53.8931 35.05 57.1481 3.55271e-015 -4.4182 9.239 9.47314e-006 -1.10154e-006 1.71943e-006 
1.63438 41.2549 -1.21098 9.96478e-007 37.6975 -2.7079e-007 0 8.7983 -4.7612 -1.28375 -0.779097 -1.75941 -2.77556e-017 8.0291 0.4195 -2.59117 -1.51822 -3.53631 -1.77636e-015 9.9351 -2.2114 -2.59116 -1.51822 -3.5363 0 22.3885 -0.4656 4.10334e-005 0.0689223 5.45996e-005 -0.0001 12.643 3.4389 -0.174661 0.643297 0.00140304 2.2603 21.606 7.4023 -10.1468 -6.40758 -52.5602 13.5163 -1.1332 -5.0146 39.1627 36.3364 28.0679 -0.0995001 -28.05 -0.2431 -56.5825 -46.9772 -33.7367 0.0679 -23.3996 -0.1402 39.8567 -20.0518 33.3759 0.7932 -9.069 2.5189 -1.19271e-015 -6.36111e-015 -3.97569e-016 -0.8272 -3.3923 0.5977 -3.97569e-016 0 -1.59028e-015 -0.5649 -2.3158 0.4082 -7.95139e-016 9.54166e-015 -2.38542e-015 0.915901 -9.2044 0.2193 -1.19271e-015 -6.36111e-015 -3.97569e-016 0.0117 -4.1944 -0.0248 -0.0127955 0.00231773 8.95707e-005 0.0071 -2.3249 -0.0142 -1.19271e-015 0 -0 0.6113 -8.7231 -2.0637 -1.19271e-015 -6.36111e-015 -3.97569e-016 -0.1927 -3.8059 -0.2383 -0.016057 0.00300345 0.00085302 -0.1091 -2.1688 -0.1362 -7.95139e-016 -6.36111e-015 -3.97569e-016 -0.6151 -8.0947 -3.5641 -1.19271e-015 -6.36111e-015 -3.97569e-016 -0.4882 -2.341 -0.6462 -0.0125954 0.00311663 0.00282716 -0.3575 -1.7167 -0.4742 -1.76556e-031 1.27222e-014 7.95139e-016 -1.42 -1.8761 1.4223 -1.19271e-015 -6.36111e-015 -3.97569e-016 -1.1471 -3.4929 2.6334 -3.97569e-016 0 -1.59028e-015 -0.823 -2.3 1.6571 -7.95139e-016 9.54166e-015 -2.38542e-015 -2.2603 21.606 7.4023 47.3508 -4.14212 -6.26139 -13.5187 -1.1334 -5.0155 -50.8997 25.7889 -20.0683 0.0994 -28.0499 -0.2431 39.2977 -2.16192 15.9511 -0.0679 -23.3996 -0.1402 19.1455 -28.5776 -39.1154 -0.7932 -9.0691 2.5189 0 4.16205e-015 -0 0.8272 -3.3923 0.5977 0 1.0548e-014 -0 0.565 -2.3158 0.4082 -1.44831e-032 4.17448e-015 1.98785e-016 -0.916 -9.2044 0.2193 0 4.16205e-015 -0 -0.0117 -4.1944 -0.0248 0.0129717 0.00232713 -8.63444e-005 -0.0071 -2.3249 -0.0142 9.54166e-015 2.2239e-015 5.36719e-015 -0.6113 -8.7231 -2.0637 0 4.16205e-015 -0 0.1927 -3.8059 -0.2383 0.0163173 0.0030373 -0.000872316 0.1091 -2.1688 -0.1362 -7.95139e-016 4.09993e-015 -1.98785e-016 0.6151 -8.0947 -3.564 0 4.16205e-015 -0 0.4882 -2.341 -0.6462 0.0145751 0.00366418 -0.00327049 0.3574 -1.7166 -0.4742 7.95139e-016 4.77083e-015 -0 1.4199 -1.8761 1.4221 0 4.16205e-015 -0 1.1472 -3.4929 2.6336 0 1.0548e-014 -0 0.8229 -2.3 1.6571 -1.44831e-032 4.17448e-015 1.98785e-016 -9.412 3.9771 -0.7758 -59.9434 -24.5169 -22.3172 -0.7531 -40.938 0 -174.812 84.1385 173.195 0 -40.1986 -7.10543e-015 52.7595 35.5674 -56.5805 3.55271e-015 -4.4182 9.239 6.50816e-007 -2.15081e-006 1.69932e-006 9.4119 3.9773 -0.7758 59.9784 -24.5663 22.2483 0.7532 -40.9383 1.77636e-015 175.379 84.1489 -173.752 7.10543e-015 -40.1986 -3.55271e-015 -52.8497 35.5292 56.6273 3.55271e-015 -4.4182 9.239 1.29118e-006 -1.91313e-007 3.3956e-006 
